<svg xmlns="http://www.w3.org/2000/svg" x="0" y="0" viewBox="0 0 336.5 336.5" xml:space="preserve" role="img" aria-hidden="true" focusable="false">
<path class="fill-current text-orange" style="color: #f15824;fill: currentColor;" d="M267.1 146.3h40.8c1 0 1.9 0 2.9-.1 1.6-.2 2.2-1.1 1.4-2.7-.9-1.7-1.8-3.4-2.8-5-2.3-4-4.7-8-7-11.9-1-1.8-.9-2.9 1-4 3.4-2.3 7.1-4.3 10.8-6.1 1.4-.6 1.9-.5 2.7.9 2.7 4.5 5.3 9.1 8 13.6 3.2 5.5 6.3 11.1 9.5 16.6 5.2 9.1 10.5 18.2 15.8 27.3l8.1 14.1c.4.7.7 1.4.9 2.2.1.5-.2 1-.6 1.1-.6.2-1.3.3-1.9.2-9.8-.4-19.5.7-29.2.7H313c-2.2-.1-4.5.1-6.6.6-1.4.3-2.9.4-4.3.3l-52.8.3c-8.3 0-16.6.1-25 .2-.8 0-1.6 0-2.4.1-.8 0-1.4.7-1.3 1.4 0 .2.1.4.2.6 1.4 2.4 2.8 4.6 4.2 7 7.2 12.6 14.5 25.1 21.8 37.7 5.3 9.2 10.6 18.5 15.9 27.8.7 1.2 1.5 2.5 2.3 3.6.5.7 1.5.8 2.2.3l.3-.3c.9-1.3 1.7-2.7 2.5-4.1 2.9-4.8 5.8-9.5 8.8-14.2.9-1.4 1.1-1.4 2.6-.5 3.5 2.2 7.1 4.2 10.6 6.5 1.9 1.2 2 1.8.9 3.5-6.2 10.1-12.3 20.2-18.4 30.2-5.5 9.1-11.1 18.3-16.6 27.4-2.7 4.5-5.4 9-8.2 13.5-1 1.7-2.7 1.7-3.8 0-1.6-2.6-3-5.2-4.5-7.9-6.7-11.8-13.5-23.5-20.2-35.3a19718 19718 0 00-26.7-47L180.1 220c-.2-.4-.5-.8-.8-1.2-.5-.8-1.5-1-2.3-.5-.2.1-.4.3-.5.5-1.2 1.8-2.4 3.8-3.6 5.7-7.7 12.7-15.4 25.3-23.1 38-6.6 10.9-13.1 21.9-19.7 32.8-.3.5-.7 1.1-1 1.6-.2.8.2 1.6 1 1.8h.1c.3.1.6.1.9.1 2.9.2 5.7.3 8.6.3 4-.2 7.9.7 11.9 1 1.1 0 2 .8 2 1.9v.4c0 3.8 0 7.7-.1 11.5.1 1.7-1.2 3-2.9 3.1h-.2c-1.7.3-3.5.3-5.3 0-5.2-1.1-10.5-.6-15.8-1-7-.5-14.1-.6-21.1-.8-1.8-.1-3.5 0-5.3 0-1.9.1-3.8-.1-5.7-.6-.4-.2-.9-.3-1.4-.2-5 .3-9.9-.7-14.8-.7-4.6 0-9.3-.1-13.9-.2-2.4-.1-2.7-.7-1.8-3 .3-.7.7-1.4 1.1-2.1l20.4-33c9-14.5 17.8-29.1 26.8-43.7 6.5-10.6 13.1-21.2 19.7-31.7.8-1.2 1.5-2.5 2.2-3.7.8-1.6 0-2.7-1.8-2.9-1-.1-1.9-.1-2.9-.1h-81c-4.6 0-4.9.5-2.8 4.5 2.6 4.8 5.1 9.6 7.6 14.4 1 2 .8 2.8-1.1 3.9-3.4 2-6.9 3.9-10.5 5.7-1 .6-2.3.3-3-.6-.4-.5-.8-1-1.1-1.5-7.2-13.7-14.5-27.3-21.7-41-5.4-10.3-10.9-20.6-16.4-30.8-.2-.4-.5-.8-.7-1.3-.6-1.3-.2-2.1 1.3-2.3.8-.1 1.6-.2 2.4-.1 4.3.1 8.6-.3 12.9.4 1 .1 1.9.1 2.9.1l52.8.3c2.2 0 4.5-.1 6.7.7.6.1 1.3.2 1.9.2h1l50.8.6c1.3 0 2.6 0 3.8-.1 1.7-.1 2.1-1 1.3-2.6-4.2-8-8.5-16-12.8-24-5.2-9.8-10.6-19.6-15.8-29.5-4-7.6-8-15.2-12.1-22.8-.8-1.5-1.2-3.9-3-4-2-.1-2.7 2.4-3.7 4-2.6 4-5.1 8.1-7.7 12.1-.3.6-.7 1.1-1.1 1.6-.9 1.2-2.5 1.5-3.8.6l-.1-.1c-3.1-2.3-6.3-4.4-9.6-6.3-1.2-.7-1.7-2.2-1-3.4.1-.1.1-.2.2-.4 1.6-2.6 3.2-5.1 4.8-7.7L88.4 39c7.4-11.4 14.7-22.8 22.1-34.1.9-1.5 1.4-3.2 2.9-4.3.6-.6 1.6-.6 2.1 0 .1.1.2.3.3.4 3.6 6.8 7.2 13.5 10.8 20.2 5 9.3 9.9 18.6 14.9 27.8 4.2 7.9 8.3 15.8 12.5 23.6 3.2 6 6.6 12 9.9 18 4.9 9.1 9.8 18.2 14.8 27.4.3.6.6 1.1 1 1.6.4.7 1.3 1 2 .6.3-.2.5-.4.6-.7 1.4-2.5 2.7-5 4.1-7.6 6.4-12.1 12.8-24.3 19.1-36.4 4.4-8.3 8.6-16.7 12.9-25 .8-1.6 1.8-3 2.7-4.5.4-.7.7-1.4.9-2.2.2-.8-.3-1.7-1.1-1.9-.9-.2-1.9-.3-2.8-.3-5.3.1-10.6-.3-15.8.2-1 .1-1.9.1-2.9 0-1.4-.1-2.1-.7-2.1-2.1-.1-4.3-.1-8.6 0-13 0-1.5.8-2.2 2.5-2.2 2.1-.1 4.1 0 6.2 0h20.2c2.6.1 5.1-.1 7.6-.6 1.4-.2 2.9-.3 4.3-.2 5.9 0 11.8.1 17.8 0 6.7-.1 13.4.5 20.1-.6 1.9-.2 3.8-.2 5.8-.1 3.6 0 4.1.8 2.5 3.8-2.5 4.8-5.1 9.6-7.6 14.4-4.2 8-8.8 15.9-12.8 24-3.4 6.8-7.3 13.4-11 20.1-4.9 9-9.6 18-14.5 26.9-5.1 9.4-10.2 18.8-15.2 28.2-.7 1.4-1.4 2.9-1.9 4.4-.2.6.1 1.3.7 1.5h.1c1.1.2 2.2.4 3.3.4 6.5-.1 13.1 0 19.7-.2 7.3-.3 14.7-.1 22.1-.1l-.1-.1zm52.1 29.7h9.4c1.9 0 2.3-.9 1.5-2.4-1.6-2.8-3.4-5.5-4.8-8.3-.8-1.8-2.6-2.9-4.6-2.7h-2.9c-8.6.1-17.2.3-25.9.5-23.2.4-46.4.3-69.6.4H218c-1 0-1.9 0-2.9.1-7.1 1.3-14.4.4-21.5.6h-.5c-.8-.2-1.2-1.1-1-1.9.3-.7.8-1.4 1.1-2.1 5.4-10 10.7-20 16.1-29.9 5.5-10.3 10.9-20.6 16.4-30.8 6.8-12.8 13.8-25.5 20.7-38.3 3.3-6 6.5-12 9.7-18.1.9-1.6.4-2.5-1.4-2.6-3-.1-6.1 0-9.1-.1-1.6-.1-3.2.8-3.9 2.3-1 1.8-1.9 3.7-2.9 5.5-9 16.3-18.1 32.7-27.1 49-7 12.7-14 25.4-21 38.2-3.1 5.7-6.2 11.5-9.4 17.2-1.1 2-2.1 2-3.5.1-.3-.4-.6-.8-.8-1.2-4.3-8.2-8.7-16.3-13-24.5-4.5-8.5-8.9-16.9-13.5-25.4-4.5-8.3-9-16.5-13.5-24.8-7.1-13.2-14.1-26.5-21.2-39.7-.4-.9-.9-1.7-1.5-2.5-1-1.5-2-1.5-3-.1-1.5 2.2-2.8 4.7-4.5 6.8-1.9 2.5-1.9 4.7-.4 7.5 5.5 10.1 10.9 20.2 16.2 30.4s10.6 20 15.9 30c4.8 9 9.7 18 14.5 27 4.2 7.9 8.3 15.8 12.5 23.7 1.7 3.1.6 3.6-2.3 3.6h-2.9c-19.2-.2-38.4 0-57.5-.8-15.6-.6-31.3-.4-47-.5H51c-1 0-1.9 0-2.9-.2-6-1.2-12.1-.3-18.2-.5-.2 0-.3 0-.5.1-.8.3-1.2 1.1-1.1 1.9.1.6.3 1.2.6 1.8 1.3 2.5 2.8 5 4 7.6 1.4 3 3.5 4 6.9 4 9-.2 17.9-.1 26.9-.1 1.4-.1 2.9 0 4.3.2 2 .4 4.1.6 6.2.5 13.8.1 27.5.1 41.3.3 14.2.2 28.5-.7 42.7.6 1.4.1 3.1-1 4.1.4 1.2 1.7-.6 2.9-1.2 4.3-.1.3-.3.6-.5.8-10.8 17.5-21.6 35.1-32.4 52.6-11.8 19-23.5 38-35.3 57-.4.7-.7 1.4-1 2.1-.3.9.2 1.8 1.1 2 .1 0 .2.1.3.1l8.1.9c2.7.3 4.7-.5 5.9-3 .5-.8 1-1.6 1.6-2.4l21.6-35.6c11.6-19.1 23.2-38.2 34.8-57.4 2.9-4.8 5.7-9.6 8.7-14.4 1.1-1.8 2.6-1.7 3.7.2 2.3 4 4.5 8.1 6.8 12.1 10.4 18.1 20.8 36.3 31.2 54.4 8.6 15 17.1 30 25.6 45 .8 1.3 1.6 2.7 2.4 4 1.5 2.3 2.4 2.3 3.8.2 1.8-2.7 3-5.6 5-8.1.7-1 .7-2.2 0-3.2-1.2-2.1-2.5-4.1-3.6-6.2l-24.3-42.3c-10-17.3-20-34.6-29.9-51.8-1.8-3-3.5-6.1-5.1-9.2-.8-1.5-.2-2.5 1.5-2.5 7.4-.1 14.7-.3 22-.5 17.9-.4 35.8-.3 53.7-.4 1.3.1 2.6.1 3.8-.1 2.7-.8 5.4-.6 8.1-.6h13.4c3.2 0 6.5.4 9.6-.1 4.6-.8 9.2-.6 14.5-.7z"></path>
</svg>